<svg width="43" height="43" viewBox="0 0 43 43" fill="none" xmlns="http://www.w3.org/2000/svg">
<path d="M21.5 30.4583C22.4895 30.4583 23.2917 29.6562 23.2917 28.6667C23.2917 27.6772 22.4895 26.875 21.5 26.875C20.5105 26.875 19.7083 27.6772 19.7083 28.6667C19.7083 29.6562 20.5105 30.4583 21.5 30.4583Z" stroke="#737B8C" stroke-width="2" stroke-linecap="round" stroke-linejoin="round"/>
<path d="M34.0417 17.917H8.95833C6.97931 17.917 5.375 19.5213 5.375 21.5003V35.8337C5.375 37.8127 6.97931 39.417 8.95833 39.417H34.0417C36.0207 39.417 37.625 37.8127 37.625 35.8337V21.5003C37.625 19.5213 36.0207 17.917 34.0417 17.917Z" stroke="#737B8C" stroke-width="2" stroke-linecap="round" stroke-linejoin="round"/>
<path d="M12.5417 17.9163V12.5413C12.5417 10.1654 13.4855 7.88686 15.1655 6.20684C16.8455 4.52683 19.1241 3.58301 21.5 3.58301C23.8759 3.58301 26.1545 4.52683 27.8345 6.20684C29.5145 7.88686 30.4583 10.1654 30.4583 12.5413V17.9163" stroke="#737B8C" stroke-width="2" stroke-linecap="round" stroke-linejoin="round"/>
</svg>

